<svg width="259" height="259" viewBox="0 0 259 259" fill="none" xmlns="http://www.w3.org/2000/svg">
<circle cx="129.5" cy="129.5" r="129" fill="white" stroke="#F1F1F1"/>
<path d="M125.914 123.015C127.088 122.776 128.282 122.649 129.476 122.649C128.282 122.649 127.088 122.769 125.914 123.015Z" fill="url(#paint0_linear_4662_10827)"/>
<path d="M195.625 151.476C195.114 152.874 194.093 154.034 192.727 154.625L137.984 178.18C132.539 180.52 126.451 180.52 121.006 178.18L66.2564 154.625C64.8902 154.041 63.8688 152.881 63.3581 151.476C63.1326 152.101 63 152.762 63 153.458V169.028C63 171.284 64.2867 173.308 66.2564 174.159L122.491 198.354C126.981 200.287 131.995 200.287 136.485 198.354L192.72 174.159C194.69 173.308 195.976 171.284 195.976 169.028V153.458C195.976 152.762 195.844 152.101 195.618 151.476H195.625Z" fill="url(#paint1_linear_4662_10827)"/>
<path d="M193.352 116.83C193.411 116.865 193.478 116.907 193.537 116.95C193.478 116.907 193.418 116.872 193.352 116.83Z" fill="url(#paint2_linear_4662_10827)"/>
<path d="M195.625 119.648C195.114 121.047 194.093 122.207 192.727 122.798L137.984 146.352C132.539 148.693 126.451 148.693 121.006 146.352L66.2564 122.798C64.8902 122.214 63.8688 121.054 63.3581 119.648C63.1326 120.274 63 120.942 63 121.631V137.2C63 139.457 64.2867 141.488 66.2564 142.339L122.491 166.533C126.981 168.466 131.995 168.466 136.485 166.533L192.72 142.339C194.69 141.488 195.976 139.464 195.976 137.207V121.638C195.976 120.942 195.844 120.281 195.618 119.655L195.625 119.648Z" fill="url(#paint3_linear_4662_10827)"/>
<path d="M122.471 60.4551L66.2564 84.6778C64.2867 85.5283 63 87.5527 63 89.8091V105.379C63 107.635 64.2867 109.66 66.2564 110.51L122.491 134.705C126.981 136.638 131.995 136.638 136.485 134.705L192.72 110.51C194.69 109.66 195.976 107.635 195.976 105.379V89.8091C195.976 87.5598 194.69 85.5283 192.72 84.6778L136.512 60.4551C132.008 58.515 126.968 58.515 122.471 60.4551Z" fill="url(#paint4_linear_4662_10827)"/>
<path d="M195.634 87.8269C195.123 86.4281 194.102 85.2682 192.736 84.6778L136.521 60.4551C132.017 58.515 126.977 58.515 122.48 60.4551L66.2655 84.6778C64.9059 85.2682 63.8779 86.421 63.3672 87.8269C63.8779 89.2257 64.8992 90.3855 66.2655 90.976L121.008 114.531C126.453 116.872 132.541 116.872 137.986 114.531L192.729 90.976C194.095 90.3926 195.117 89.2327 195.627 87.8269H195.634Z" fill="#263238"/>
<path d="M74.0451 93.155L102.199 81.0226C124.695 71.3293 149.871 71.3293 172.368 81.0226L193.863 90.2871C194.666 89.6545 195.282 88.811 195.641 87.8269C195.13 86.4281 194.108 85.2682 192.742 84.6778L136.521 60.4551C132.017 58.515 126.977 58.515 122.48 60.4551L66.2655 84.6778C64.9059 85.2682 63.8779 86.421 63.3672 87.8269C63.8779 89.2257 64.8992 90.3855 66.2655 90.976L72.9242 93.8439C73.2691 93.5768 73.6339 93.3378 74.0385 93.1621L74.0451 93.155Z" fill="#37474F"/>
<g style="mix-blend-mode:multiply" opacity="0.31">
<path d="M196.004 153.459C196.004 152.763 195.872 152.103 195.646 151.477C193.371 166.892 178.648 178.118 167.625 184.971L192.748 174.16C194.718 173.31 196.004 171.285 196.004 169.029V153.459Z" fill="#1565C0"/>
</g>
<g style="mix-blend-mode:multiply" opacity="0.31">
<path d="M196.004 121.631C196.004 120.935 195.872 120.274 195.646 119.648C193.371 135.064 178.648 146.289 167.625 153.143L192.748 142.332C194.718 141.481 196.004 139.457 196.004 137.2V121.631Z" fill="#1565C0"/>
</g>
<g style="mix-blend-mode:multiply" opacity="0.31">
<path d="M196.004 89.8236C196.004 89.1277 195.872 88.4669 195.646 87.8413C193.371 103.256 178.648 114.482 167.625 121.336L192.748 110.525C194.718 109.674 196.004 107.65 196.004 105.393V89.8236Z" fill="#1565C0"/>
</g>
<defs>
<linearGradient id="paint0_linear_4662_10827" x1="125.914" y1="122.832" x2="129.476" y2="122.832" gradientUnits="userSpaceOnUse">
<stop stop-color="#82B1FF"/>
<stop offset="1" stop-color="#1565C0"/>
</linearGradient>
<linearGradient id="paint1_linear_4662_10827" x1="63" y1="175.635" x2="195.983" y2="175.635" gradientUnits="userSpaceOnUse">
<stop stop-color="#82B1FF"/>
<stop offset="1" stop-color="#1565C0"/>
</linearGradient>
<linearGradient id="paint2_linear_4662_10827" x1="193.352" y1="116.893" x2="193.531" y2="116.893" gradientUnits="userSpaceOnUse">
<stop stop-color="#82B1FF"/>
<stop offset="1" stop-color="#1565C0"/>
</linearGradient>
<linearGradient id="paint3_linear_4662_10827" x1="63" y1="143.815" x2="195.983" y2="143.815" gradientUnits="userSpaceOnUse">
<stop stop-color="#82B1FF"/>
<stop offset="1" stop-color="#1565C0"/>
</linearGradient>
<linearGradient id="paint4_linear_4662_10827" x1="63" y1="97.5764" x2="195.983" y2="97.5764" gradientUnits="userSpaceOnUse">
<stop stop-color="#82B1FF"/>
<stop offset="1" stop-color="#1565C0"/>
</linearGradient>
</defs>
</svg>
